<svg width="89" height="12" viewBox="0 0 89 12" fill="none" xmlns="http://www.w3.org/2000/svg">
<path d="M5.72853 2.52C5.72853 2.72 5.69653 2.924 5.63253 3.132C5.56853 3.34 5.47253 3.536 5.34453 3.72C5.21653 3.896 5.05253 4.052 4.85253 4.188C4.65253 4.324 4.41653 4.428 4.14453 4.5V4.548C4.38453 4.588 4.61253 4.656 4.82853 4.752C5.05253 4.848 5.24853 4.98 5.41653 5.148C5.58453 5.316 5.72053 5.52 5.82453 5.76C5.92853 6 5.98053 6.284 5.98053 6.612C5.98053 7.044 5.88853 7.42 5.70453 7.74C5.52853 8.052 5.29253 8.308 4.99653 8.508C4.70853 8.708 4.37653 8.856 4.00053 8.952C3.62453 9.048 3.24053 9.096 2.84853 9.096C2.71253 9.096 2.55253 9.096 2.36853 9.096C2.18453 9.096 1.99253 9.088 1.79253 9.072C1.59253 9.064 1.39253 9.048 1.19253 9.024C0.992531 9.008 0.816531 8.98 0.664531 8.94V0.672C0.960531 0.624 1.30453 0.583999 1.69653 0.551999C2.08853 0.52 2.51653 0.504 2.98053 0.504C3.29253 0.504 3.60853 0.532 3.92853 0.588C4.25653 0.635999 4.55253 0.735999 4.81653 0.887999C5.08053 1.032 5.29653 1.236 5.46453 1.5C5.64053 1.764 5.72853 2.104 5.72853 2.52ZM2.94453 8.232C3.20053 8.232 3.44853 8.204 3.68853 8.148C3.92853 8.084 4.14053 7.988 4.32453 7.86C4.50853 7.724 4.65253 7.56 4.75653 7.368C4.86853 7.176 4.92453 6.948 4.92453 6.684C4.92453 6.356 4.85653 6.092 4.72053 5.892C4.59253 5.692 4.42053 5.536 4.20453 5.424C3.99653 5.312 3.76053 5.236 3.49653 5.196C3.23253 5.156 2.96853 5.136 2.70453 5.136H1.66053V8.148C1.71653 8.164 1.79653 8.176 1.90053 8.184C2.00453 8.192 2.11653 8.2 2.23653 8.208C2.35653 8.216 2.48053 8.224 2.60853 8.232C2.73653 8.232 2.84853 8.232 2.94453 8.232ZM2.28453 4.296C2.42053 4.296 2.58453 4.292 2.77653 4.284C2.96853 4.276 3.12853 4.264 3.25653 4.248C3.44853 4.184 3.62853 4.108 3.79653 4.02C3.96453 3.924 4.11253 3.816 4.24053 3.696C4.37653 3.568 4.48053 3.424 4.55253 3.264C4.63253 3.096 4.67253 2.916 4.67253 2.724C4.67253 2.46 4.62053 2.244 4.51653 2.076C4.42053 1.9 4.28853 1.76 4.12053 1.656C3.95253 1.552 3.76053 1.48 3.54453 1.44C3.32853 1.392 3.10853 1.368 2.88453 1.368C2.62053 1.368 2.37653 1.376 2.15253 1.392C1.93653 1.4 1.77253 1.416 1.66053 1.44V4.296H2.28453ZM9.14834 5.928L7.13234 3H8.30834L9.44834 4.656L9.78434 5.34L10.1323 4.656L11.2963 3H12.3763L10.3483 5.88L12.4963 9H11.3563L10.0843 7.176L9.72434 6.456L9.35234 7.176L8.05634 9H6.98834L9.14834 5.928ZM13.9561 3H14.9161V9H13.9561V3ZM13.7521 1.176C13.7521 0.992 13.8121 0.836 13.9321 0.707999C14.0601 0.572 14.2201 0.504 14.4121 0.504C14.6041 0.504 14.7681 0.572 14.9041 0.707999C15.0401 0.836 15.1081 0.992 15.1081 1.176C15.1081 1.36 15.0401 1.512 14.9041 1.632C14.7681 1.752 14.6041 1.812 14.4121 1.812C14.2201 1.812 14.0601 1.752 13.9321 1.632C13.8121 1.512 13.7521 1.36 13.7521 1.176ZM22.2671 10.524H21.6191L21.4391 9H16.9271L16.7471 10.524H16.0991V8.16H16.8071C16.8711 8.072 16.9551 7.916 17.0591 7.692C17.1631 7.46 17.2631 7.14 17.3591 6.732C17.4631 6.316 17.5511 5.804 17.6231 5.196C17.7031 4.58 17.7511 3.848 17.7671 3H21.3911V8.16H22.2671V10.524ZM20.4311 8.16V3.84H18.6311C18.6151 4.176 18.5871 4.544 18.5471 4.944C18.5071 5.336 18.4511 5.732 18.3791 6.132C18.3151 6.524 18.2311 6.896 18.1271 7.248C18.0231 7.6 17.9031 7.904 17.7671 8.16H20.4311ZM29.6665 0.456L30.4225 0.792L26.0425 10.68L25.2865 10.344L29.6665 0.456ZM34.1919 0.684C34.4959 0.612 34.8239 0.564 35.1759 0.539999C35.5279 0.516 35.8759 0.504 36.2199 0.504C36.5879 0.504 36.9599 0.54 37.3359 0.611999C37.7199 0.683999 38.0679 0.816 38.3799 1.008C38.6919 1.2 38.9439 1.464 39.1359 1.8C39.3359 2.136 39.4359 2.564 39.4359 3.084C39.4359 3.596 39.3439 4.028 39.1599 4.38C38.9759 4.732 38.7319 5.02 38.4279 5.244C38.1239 5.46 37.7759 5.616 37.3839 5.712C36.9919 5.808 36.5879 5.856 36.1719 5.856C36.1319 5.856 36.0639 5.856 35.9679 5.856C35.8799 5.856 35.7839 5.856 35.6799 5.856C35.5839 5.848 35.4879 5.84 35.3919 5.832C35.2959 5.824 35.2279 5.816 35.1879 5.808V9H34.1919V0.684ZM36.2439 1.368C36.0359 1.368 35.8359 1.372 35.6439 1.38C35.4519 1.388 35.2999 1.408 35.1879 1.44V4.92C35.2279 4.936 35.2919 4.948 35.3799 4.956C35.4679 4.956 35.5599 4.96 35.6559 4.968C35.7519 4.968 35.8439 4.968 35.9319 4.968C36.0199 4.968 36.0839 4.968 36.1239 4.968C36.3959 4.968 36.6639 4.944 36.9279 4.896C37.1999 4.84 37.4439 4.744 37.6599 4.608C37.8759 4.472 38.0479 4.28 38.1759 4.032C38.3119 3.784 38.3799 3.468 38.3799 3.084C38.3799 2.756 38.3159 2.484 38.1879 2.268C38.0679 2.044 37.9039 1.868 37.6959 1.74C37.4959 1.604 37.2679 1.508 37.0119 1.452C36.7559 1.396 36.4999 1.368 36.2439 1.368ZM44.7454 8.52C44.5054 8.712 44.2014 8.864 43.8334 8.976C43.4734 9.088 43.0894 9.144 42.6814 9.144C42.2254 9.144 41.8294 9.072 41.4934 8.928C41.1574 8.776 40.8814 8.564 40.6654 8.292C40.4494 8.012 40.2894 7.68 40.1854 7.296C40.0814 6.912 40.0294 6.48 40.0294 6C40.0294 4.976 40.2574 4.196 40.7134 3.66C41.1694 3.124 41.8214 2.856 42.6694 2.856C42.9414 2.856 43.2134 2.888 43.4854 2.952C43.7574 3.008 44.0014 3.12 44.2174 3.288C44.4334 3.456 44.6094 3.696 44.7454 4.008C44.8814 4.312 44.9494 4.716 44.9494 5.22C44.9494 5.484 44.9254 5.776 44.8774 6.096H41.0254C41.0254 6.448 41.0614 6.76 41.1334 7.032C41.2054 7.304 41.3174 7.536 41.4694 7.728C41.6214 7.912 41.8174 8.056 42.0574 8.16C42.3054 8.256 42.6054 8.304 42.9574 8.304C43.2294 8.304 43.5014 8.256 43.7734 8.16C44.0454 8.064 44.2494 7.952 44.3854 7.824L44.7454 8.52ZM42.6814 3.696C42.2094 3.696 41.8294 3.82 41.5414 4.068C41.2614 4.316 41.0934 4.74 41.0374 5.34H44.0134C44.0134 4.732 43.8974 4.308 43.6654 4.068C43.4334 3.82 43.1054 3.696 42.6814 3.696ZM50.6623 8.604C50.4223 8.78 50.1303 8.912 49.7863 9C49.4423 9.096 49.0903 9.144 48.7303 9.144C48.2663 9.144 47.8623 9.072 47.5183 8.928C47.1823 8.776 46.8983 8.564 46.6663 8.292C46.4423 8.012 46.2743 7.68 46.1623 7.296C46.0503 6.904 45.9943 6.472 45.9943 6C45.9943 5.496 46.0623 5.048 46.1982 4.656C46.3343 4.264 46.5223 3.936 46.7623 3.672C47.0103 3.408 47.3063 3.208 47.6503 3.072C47.9943 2.928 48.3743 2.856 48.7903 2.856C49.1743 2.856 49.5103 2.888 49.7983 2.952C50.0863 3.008 50.3383 3.092 50.5543 3.204L50.2783 4.032C50.0943 3.928 49.8783 3.848 49.6303 3.792C49.3903 3.728 49.1423 3.696 48.8863 3.696C48.3343 3.688 47.8903 3.844 47.5543 4.164C47.2263 4.476 47.0303 4.944 46.9663 5.568H49.7983V6.36H46.9543C46.9783 6.624 47.0343 6.876 47.1223 7.116C47.2183 7.356 47.3463 7.564 47.5063 7.74C47.6743 7.916 47.8783 8.056 48.1183 8.16C48.3583 8.256 48.6463 8.304 48.9823 8.304C49.2623 8.304 49.5223 8.26 49.7623 8.172C50.0103 8.084 50.2063 7.984 50.3503 7.872L50.6623 8.604ZM56.0824 8.604C55.8424 8.78 55.5584 8.912 55.2304 9C54.9024 9.096 54.5584 9.144 54.1984 9.144C53.7344 9.144 53.3424 9.072 53.0224 8.928C52.7024 8.776 52.4384 8.564 52.2304 8.292C52.0304 8.012 51.8824 7.68 51.7864 7.296C51.6984 6.904 51.6544 6.472 51.6544 6C51.6544 4.984 51.8784 4.208 52.3264 3.672C52.7744 3.128 53.4184 2.856 54.2584 2.856C54.6424 2.856 54.9664 2.888 55.2304 2.952C55.5024 3.008 55.7464 3.092 55.9624 3.204L55.6864 4.032C55.5024 3.928 55.2984 3.848 55.0744 3.792C54.8504 3.728 54.6104 3.696 54.3544 3.696C53.2184 3.696 52.6504 4.464 52.6504 6C52.6504 6.304 52.6784 6.596 52.7344 6.876C52.7984 7.148 52.8984 7.392 53.0344 7.608C53.1784 7.816 53.3624 7.984 53.5864 8.112C53.8184 8.24 54.1024 8.304 54.4384 8.304C54.7264 8.304 54.9824 8.26 55.2064 8.172C55.4384 8.084 55.6264 7.984 55.7704 7.872L56.0824 8.604ZM61.045 3.84H59.161V9H58.201V3.84H56.317V3H61.045V3.84ZM61.9982 3H62.6582L62.8382 3.72H62.8862C63.0702 3.44 63.3062 3.228 63.5942 3.084C63.8902 2.932 64.2262 2.856 64.6022 2.856C65.4022 2.856 65.9982 3.092 66.3902 3.564C66.7822 4.036 66.9782 4.808 66.9782 5.88C66.9782 6.384 66.9102 6.84 66.7742 7.248C66.6462 7.648 66.4622 7.988 66.2222 8.268C65.9822 8.548 65.6902 8.764 65.3462 8.916C65.0102 9.068 64.6342 9.144 64.2182 9.144C63.9222 9.144 63.6862 9.124 63.5102 9.084C63.3422 9.052 63.1582 8.992 62.9582 8.904V11.4H61.9982V3ZM64.4222 3.696C64.0142 3.696 63.6902 3.804 63.4502 4.02C63.2182 4.228 63.0542 4.548 62.9582 4.98V7.956C63.1022 8.068 63.2662 8.156 63.4502 8.22C63.6342 8.276 63.8782 8.304 64.1822 8.304C64.7342 8.304 65.1702 8.1 65.4902 7.692C65.8182 7.276 65.9822 6.668 65.9822 5.868C65.9822 5.54 65.9542 5.244 65.8982 4.98C65.8422 4.708 65.7502 4.48 65.6222 4.296C65.5022 4.104 65.3422 3.956 65.1422 3.852C64.9502 3.748 64.7102 3.696 64.4222 3.696ZM68.3944 3.444C68.6984 3.26 69.0504 3.124 69.4504 3.036C69.8584 2.948 70.2824 2.904 70.7224 2.904C71.1384 2.904 71.4704 2.96 71.7184 3.072C71.9744 3.184 72.1664 3.332 72.2944 3.516C72.4304 3.692 72.5184 3.888 72.5584 4.104C72.6064 4.32 72.6304 4.536 72.6304 4.752C72.6304 5.232 72.6184 5.7 72.5944 6.156C72.5704 6.612 72.5584 7.044 72.5584 7.452C72.5584 7.748 72.5704 8.028 72.5944 8.292C72.6184 8.556 72.6624 8.8 72.7264 9.024H72.0184L71.7664 8.184H71.7064C71.6344 8.296 71.5424 8.408 71.4304 8.52C71.3264 8.624 71.1984 8.72 71.0464 8.808C70.8944 8.888 70.7184 8.956 70.5184 9.012C70.3184 9.068 70.0904 9.096 69.8344 9.096C69.5784 9.096 69.3384 9.056 69.1144 8.976C68.8984 8.896 68.7104 8.784 68.5504 8.64C68.3904 8.488 68.2624 8.308 68.1664 8.1C68.0784 7.892 68.0344 7.656 68.0344 7.392C68.0344 7.04 68.1064 6.748 68.2504 6.516C68.3944 6.276 68.5944 6.088 68.8504 5.952C69.1144 5.808 69.4264 5.708 69.7864 5.652C70.1544 5.588 70.5584 5.556 70.9984 5.556C71.1104 5.556 71.2184 5.556 71.3224 5.556C71.4344 5.556 71.5464 5.564 71.6584 5.58C71.6824 5.34 71.6944 5.124 71.6944 4.932C71.6944 4.492 71.6064 4.184 71.4304 4.008C71.2544 3.832 70.9344 3.744 70.4704 3.744C70.3344 3.744 70.1864 3.756 70.0264 3.78C69.8744 3.796 69.7144 3.824 69.5464 3.864C69.3864 3.896 69.2304 3.94 69.0784 3.996C68.9344 4.044 68.8064 4.1 68.6944 4.164L68.3944 3.444ZM70.0984 8.256C70.3224 8.256 70.5224 8.228 70.6984 8.172C70.8744 8.108 71.0264 8.032 71.1544 7.944C71.2824 7.848 71.3864 7.744 71.4664 7.632C71.5544 7.52 71.6184 7.412 71.6584 7.308V6.312C71.5464 6.304 71.4304 6.3 71.3104 6.3C71.1984 6.292 71.0864 6.288 70.9744 6.288C70.7264 6.288 70.4824 6.304 70.2424 6.336C70.0104 6.36 69.8024 6.412 69.6184 6.492C69.4424 6.564 69.2984 6.668 69.1864 6.804C69.0824 6.932 69.0304 7.096 69.0304 7.296C69.0304 7.576 69.1304 7.808 69.3304 7.992C69.5304 8.168 69.7864 8.256 70.0984 8.256ZM79.8315 10.524H79.1835L79.0035 9H74.4435V3H75.4035V8.16H78.0075V3H78.9675V8.16H79.8315V10.524ZM81.2218 3H82.1818V9H81.2218V3ZM81.0178 1.176C81.0178 0.992 81.0778 0.836 81.1978 0.707999C81.3258 0.572 81.4858 0.504 81.6777 0.504C81.8698 0.504 82.0338 0.572 82.1698 0.707999C82.3058 0.836 82.3738 0.992 82.3738 1.176C82.3738 1.36 82.3058 1.512 82.1698 1.632C82.0338 1.752 81.8698 1.812 81.6777 1.812C81.4858 1.812 81.3258 1.752 81.1978 1.632C81.0778 1.512 81.0178 1.36 81.0178 1.176ZM87.2167 6.516L86.2927 6.66L84.7087 9H83.5447L84.9847 6.948L85.4647 6.504C85.0487 6.44 84.6927 6.272 84.3967 6C84.1087 5.728 83.9647 5.36 83.9647 4.896C83.9647 4.536 84.0247 4.228 84.1447 3.972C84.2727 3.716 84.4527 3.504 84.6847 3.336C84.9167 3.168 85.1927 3.048 85.5127 2.976C85.8327 2.896 86.1927 2.856 86.5927 2.856C86.8887 2.856 87.1647 2.876 87.4207 2.916C87.6767 2.956 87.9287 3 88.1767 3.048V9H87.2167V6.516ZM87.2167 3.816C87.1127 3.776 86.9967 3.748 86.8687 3.732C86.7407 3.708 86.6287 3.696 86.5327 3.696C86.0207 3.696 85.6287 3.788 85.3567 3.972C85.0927 4.156 84.9607 4.448 84.9607 4.848C84.9607 5.208 85.1007 5.488 85.3807 5.688C85.6687 5.88 86.0447 5.976 86.5087 5.976C86.5167 5.976 86.5287 5.976 86.5447 5.976C86.5607 5.976 86.5927 5.976 86.6407 5.976C86.6887 5.976 86.7567 5.976 86.8447 5.976C86.9327 5.968 87.0567 5.96 87.2167 5.952V3.816Z" fill="#969696"/>
</svg>
